# xmcd CD database file
#
# Track frame offsets:
#	150
#	15550
#	28850
#	43700
#	57375
#	74262
#	90550
#	101362
#	121525
#	134900
#	155162
#	167012
#	176262
#	195012
#	209012
#	221837
#	233400
#	245637
#	260392
#	276437
#
# Disc length: 3841 seconds
#
# Revision: 0
# Processed by: cddbd v1.5.2PL0 Copyright (c) Steve Scherf et al.
# Submitted via: CDex 1.70beta2
#
DISCID=1d0eff14
DTITLE=Quintette Du Hot Club De France - Django Reinhardt and Stéphane Grappelli
DYEAR=1953
DGENRE=Jazz
TTITLE0=D. Reinhardt and S. Grapelli~Django Reinhardt and Stephane Grapelli~01_Old Man River
TTITLE1=D. Reinhardt and S. Grapelli~Django Reinhardt and Stephane Grapelli~03 - Swing Guitars
TTITLE2=D. Reinhardt and S. Grapelli~Django Reinhardt and Stephane Grapelli~04 - I Love You
TTITLE3=D. Reinhardt and S. Grapelli~Django Reinhardt and Stephane Grapelli~05 - Tiger Rag
TTITLE4=D. Reinhardt and S. Grapelli~Django Reinhardt and Stephane Grapelli~06 - Tears
TTITLE5=D. Reinhardt and S. Grapelli~Django Reinhardt and Stephane Grapelli~07 - Dinah
TTITLE6=D. Reinhardt and S. Grapelli~Django Reinhardt and Stephane Grapelli~08 - Then There Eyes
TTITLE7=D. Reinhardt and S. Grapelli~Django Reinhardt and Stephane Grapelli~09 - Daphne
TTITLE8=D. Reinhardt and S. Grapelli~Django Reinhardt and Stephane Grapelli~10 - How High the Moon
TTITLE9=D. Reinhardt and S. Grapelli~Django Reinhardt and Stephane Grapelli~11 - Manoir de Mes Reves
TTITLE10=D. Reinhardt and S. Grapelli~Django Reinhardt and Stephane Grapelli~12 - Danse Nuptiale
TTITLE11=D. Reinhardt and S. Grapelli~Django Reinhardt and Stephane Grapelli~13_Improvisation No. 5
TTITLE12=D. Reinhardt and S. Grapelli~Django Reinhardt and Stephane Grapelli~14 - Nuages
TTITLE13=D. Reinhardt and S. Grapelli~Django Reinhardt and Stephane Grapelli~15 - Black Night
TTITLE14=D. Reinhardt and S. Grapelli~Django Reinhardt and Stephane Grapelli~16 - Danse Norv￩gienne No 2
TTITLE15=D. Reinhardt and S. Grapelli~Django Reinhardt and Stephane Grapelli~17 - Micro
TTITLE16=D. Reinhardt and S. Grapelli~Django Reinhardt and Stephane Grapelli~18 - Dream of You
TTITLE17=D. Reinhardt and S. Grapelli~Django Reinhardt and Stephane Grapelli~19 - Place de Broukere
TTITLE18=D. Reinhardt and S. Grapelli~Django Reinhardt and Stephane Grapelli~20 - Manoir de Mes Reves
TTITLE19=D. Reinhardt and S. Grapelli~Django Reinhardt and Stephane Grapelli~21_C - Jam Blues
EXTD=YEAR: 1953
EXTT0=
EXTT1=
EXTT2=
EXTT3=
EXTT4=
EXTT5=
EXTT6=
EXTT7=
EXTT8=
EXTT9=
EXTT10=
EXTT11=
EXTT12=
EXTT13=
EXTT14=
EXTT15=
EXTT16=
EXTT17=
EXTT18=
EXTT19=
PLAYORDER=
